<?xml version="1.0" encoding="utf-8"?>
<!-- Generator: Adobe Illustrator 21.0.0, SVG Export Plug-In . SVG Version: 6.00 Build 0)  -->
<svg version="1.1" id="Layer_1" xmlns="http://www.w3.org/2000/svg" xmlns:xlink="http://www.w3.org/1999/xlink" x="0px" y="0px"
	 viewBox="0 0 512 512" style="enable-background:new 0 0 512 512;" xml:space="preserve">
<style type="text/css">
	.st0{fill:#FBC749;}
	.st1{fill:#75B4E2;}
	.st2{fill:#E85558;}
	.st3{fill:#FFFFFF;}
	.st4{fill:#17171D;}
</style>
<g id="Judge">
	<g>
		<path class="st0" d="M168.7,180.5c6.5,0,11.8-5.3,11.8-11.8s-5.3-11.8-11.8-11.8s-11.8,5.3-11.8,11.8S162.2,180.5,168.7,180.5z"/>
		<path class="st0" d="M343.3,250.4c6.5,0,11.8-5.3,11.8-11.8c0-6.5-5.3-11.8-11.8-11.8s-11.8,5.3-11.8,11.8h-8.6
			c-2.2,4.2-4.8,8.1-7.7,11.8H343.3z"/>
		<path class="st0" d="M168.7,215.4c6.5,0,11.8-5.3,11.8-11.8c0-6.5-5.3-11.8-11.8-11.8s-11.8,5.3-11.8,11.8
			C156.9,210.1,162.2,215.4,168.7,215.4z"/>
		<path class="st0" d="M180.5,238.5c0-6.5-5.3-11.8-11.8-11.8s-11.8,5.3-11.8,11.8c0,6.5,5.3,11.8,11.8,11.8h28.1
			c-2.9-3.7-5.5-7.6-7.7-11.8H180.5z"/>
		<path class="st1" d="M372.3,372.6c-2.9-32.8-30.4-58.6-64-58.6h-18.1l22,58.6H372.3z"/>
		<path class="st0" d="M343.3,180.5c6.5,0,11.8-5.3,11.8-11.8s-5.3-11.8-11.8-11.8s-11.8,5.3-11.8,11.8S336.8,180.5,343.3,180.5z"/>
		<path class="st0" d="M343.3,215.4c6.5,0,11.8-5.3,11.8-11.8c0-6.5-5.3-11.8-11.8-11.8s-11.8,5.3-11.8,11.8
			C331.5,210.1,336.8,215.4,343.3,215.4z"/>
		<path class="st0" d="M221.1,145.6c16.2,0,29.3-13.1,29.3-29.3h0h0V98.8h11.3v17.5h0c0,16.1,13.1,29.3,29.3,29.3h29.3l0-11.8
			c0-25.8-21-46.8-46.8-46.8h-34.9c-25.8,0-46.8,21-46.8,46.8l0,11.8H221.1z"/>
		<polygon class="st2" points="366.4,413.2 355.1,413.2 355.1,401.3 261.6,401.3 261.6,413.2 250.4,413.2 250.4,401.3 156.9,401.3 
			156.9,413.2 145.6,413.2 145.6,401.3 121.9,401.3 121.9,425 390.1,425 390.1,401.3 366.4,401.3 		"/>
		<path class="st3" d="M250.4,372.6v-11.8h11.3v11.8h38.6l-17.6-46.9c-5.7,8.7-15.5,14.5-26.7,14.5c-11.2,0-21-5.8-26.7-14.5
			l-17.6,46.9H250.4z"/>
		<path class="st1" d="M221.7,314h-18.1c-33.5,0-61.1,25.8-64,58.6h60L221.7,314z"/>
		<polygon class="st0" points="104.5,390.1 110.7,390.1 401.3,390.1 407.5,390.1 407.5,383.9 104.5,383.9 		"/>
		<path class="st3" d="M235.4,276.2v32.2c0,11.3,9.2,20.6,20.6,20.6c11.3,0,20.6-9.2,20.6-20.6v-32.2c-6.5,1.9-13.4,2.9-20.6,2.9
			C248.9,279.1,242,278.1,235.4,276.2z"/>
		<path class="st3" d="M320.2,203.6l0-46.8h-29.3c-14.9,0-27.9-8-34.9-20c-7.1,11.9-20.1,20-34.9,20h-29.3l0,46.8
			c0,35.4,28.8,64.2,64.2,64.2S320.2,239,320.2,203.6z M264.7,163.1h34.9v11.3h-11.8v11.8h-11.3v-11.8h-11.8V163.1z M247.3,174.3
			h-11.8v11.8h-11.3v-11.8h-11.8v-11.3h34.9V174.3z"/>
		<polygon class="st4" points="212.4,174.3 224.2,174.3 224.2,186.2 235.4,186.2 235.4,174.3 247.3,174.3 247.3,163.1 212.4,163.1 
					"/>
		<polygon class="st4" points="276.6,186.2 287.8,186.2 287.8,174.3 299.7,174.3 299.7,163.1 264.7,163.1 264.7,174.3 276.6,174.3 
					"/>
		<path class="st4" d="M308.4,302.8h-20.6V272c5.9-2.8,11.4-6.3,16.4-10.4h39.1c12.7,0,23.1-10.4,23.1-23.1c0-7-3.1-13.2-8-17.5
			c4.9-4.2,8-10.5,8-17.5c0-7-3.1-13.2-8-17.5c4.9-4.2,8-10.5,8-17.5c0-12.7-10.4-23.1-23.1-23.1c-4.3,0-8.4,1.2-11.8,3.3l0-15.1
			c0-32-26-58-58-58h-34.9c-32,0-58,26-58,58l0,15.1c-3.5-2.1-7.5-3.3-11.8-3.3c-12.7,0-23.1,10.4-23.1,23.1c0,7,3.1,13.2,8,17.5
			c-4.9,4.2-8,10.5-8,17.5c0,7,3.1,13.2,8,17.5c-4.9,4.2-8,10.5-8,17.5c0,12.7,10.4,23.1,23.1,23.1h39.1c5,4.1,10.5,7.6,16.4,10.4
			v30.7h-20.6c-39.7,0-72.4,30.8-75.2,69.8H93.2v28.7h17.5v34.9h290.6v-34.9h17.5v-28.7h-35.2C380.7,333.6,348.1,302.8,308.4,302.8z
			 M308.4,314c33.5,0,61.1,25.8,64,58.6h-60l-22-58.6H308.4z M343.3,156.9c6.5,0,11.8,5.3,11.8,11.8s-5.3,11.8-11.8,11.8
			s-11.8-5.3-11.8-11.8S336.8,156.9,343.3,156.9z M343.3,191.8c6.5,0,11.8,5.3,11.8,11.8c0,6.5-5.3,11.8-11.8,11.8
			s-11.8-5.3-11.8-11.8C331.5,197.1,336.8,191.8,343.3,191.8z M331.5,238.5c0-6.5,5.3-11.8,11.8-11.8s11.8,5.3,11.8,11.8
			c0,6.5-5.3,11.8-11.8,11.8h-28.1c2.9-3.7,5.5-7.6,7.7-11.8H331.5z M238.5,87h34.9c25.8,0,46.8,21,46.8,46.8l0,11.8h-29.3
			c-16.1,0-29.3-13.1-29.3-29.3h0V98.8h-11.3v17.5h0h0c0,16.2-13.1,29.3-29.3,29.3h-29.3l0-11.8C191.8,108,212.8,87,238.5,87z
			 M168.7,156.9c6.5,0,11.8,5.3,11.8,11.8s-5.3,11.8-11.8,11.8s-11.8-5.3-11.8-11.8S162.2,156.9,168.7,156.9z M168.7,191.8
			c6.5,0,11.8,5.3,11.8,11.8c0,6.5-5.3,11.8-11.8,11.8s-11.8-5.3-11.8-11.8C156.9,197.1,162.2,191.8,168.7,191.8z M168.7,250.4
			c-6.5,0-11.8-5.3-11.8-11.8c0-6.5,5.3-11.8,11.8-11.8s11.8,5.3,11.8,11.8h8.6c2.2,4.2,4.8,8.1,7.7,11.8H168.7z M191.8,203.6
			l0-46.8h29.3c14.9,0,27.9-8,34.9-20c7.1,11.9,20.1,20,34.9,20h29.3l0,46.8c0,35.4-28.8,64.2-64.2,64.2S191.8,239,191.8,203.6z
			 M276.6,276.2v32.2c0,11.3-9.2,20.6-20.6,20.6c-11.3,0-20.6-9.2-20.6-20.6v-32.2c6.5,1.9,13.4,2.9,20.6,2.9
			C263.1,279.1,270,278.1,276.6,276.2z M229.3,325.7c5.7,8.7,15.5,14.5,26.7,14.5c11.2,0,21-5.8,26.7-14.5l17.6,46.9h-38.6v-11.8
			h-11.3v11.8h-38.6L229.3,325.7z M203.6,314h18.1l-22,58.6h-60C142.5,339.8,170.1,314,203.6,314z M390.1,425H121.9v-23.7h23.7v11.8
			h11.3v-11.8h93.5v11.8h11.3v-11.8h93.5v11.8h11.3v-11.8h23.7V425z M407.5,390.1h-6.2H110.7h-6.2v-6.2h303V390.1z"/>
	</g>
</g>
</svg>
