<?xml version="1.0" standalone="no"?>
<!DOCTYPE svg PUBLIC "-//W3C//DTD SVG 20010904//EN"
 "http://www.w3.org/TR/2001/REC-SVG-20010904/DTD/svg10.dtd">
<svg version="1.0" xmlns="http://www.w3.org/2000/svg"
 width="800.000000pt" height="730.000000pt" viewBox="0 0 800.000000 730.000000"
 preserveAspectRatio="xMidYMid meet">

<g transform="translate(0.000000,730.000000) scale(0.100000,-0.100000)"
fill="#000000" stroke="none">
<path d="M0 3650 l0 -3650 4000 0 4000 0 0 3650 0 3650 -4000 0 -4000 0 0
-3650z m4157 3260 c49 0 63 -26 16 -32 -32 -4 -41 -26 -42 -115 l-1 -61 38 -6
c20 -3 64 -7 97 -8 l60 -3 6 75 c7 82 -1 110 -31 110 -12 0 -20 7 -20 16 0 13
8 15 48 10 26 -3 77 -8 115 -12 37 -3 67 -10 67 -15 0 -5 -6 -9 -13 -9 -41 0
-47 -20 -62 -214 -16 -200 -15 -212 28 -218 12 -2 21 -7 19 -13 -4 -16 -242
-2 -242 14 0 4 15 11 33 16 32 10 32 10 41 98 5 48 7 89 5 92 -3 2 -48 7 -100
11 l-96 7 -6 -54 c-14 -110 -10 -130 23 -142 44 -17 39 -36 -7 -30 -21 2 -75
7 -121 11 -79 7 -111 23 -57 30 15 2 30 12 35 25 10 25 30 247 30 333 0 53 -2
56 -30 67 -53 20 -33 30 47 23 42 -3 96 -6 120 -6z m-502 -19 c3 -6 -7 -16
-22 -23 -32 -15 -38 -38 -28 -115 l6 -53 83 6 c95 8 141 -7 169 -55 23 -39 22
-108 -3 -148 -37 -62 -79 -78 -260 -98 -152 -18 -140 -18 -140 -1 0 7 13 16
29 19 16 3 31 13 34 21 4 9 -3 89 -13 178 -11 90 -20 171 -20 180 0 24 -28 48
-56 48 -13 0 -24 4 -24 10 0 9 16 13 135 28 99 13 103 13 110 3z m1153 -76
c101 -28 129 -45 73 -45 -35 0 -47 -14 -66 -76 -18 -61 -19 -84 -2 -84 33 0
119 -33 146 -56 81 -68 44 -204 -63 -234 -55 -15 -98 -9 -240 33 -111 33 -151
60 -82 55 19 -1 38 1 42 4 10 11 38 103 75 246 l34 134 -27 22 c-32 25 -36 41
-10 33 9 -2 63 -17 120 -32z m-1635 -169 c164 -226 172 -236 212 -236 68 0 37
-25 -68 -53 -56 -16 -108 -31 -114 -34 -21 -8 -15 17 8 35 20 17 19 19 -78
157 l-98 140 -8 -60 c-4 -33 -6 -109 -5 -170 l3 -110 33 -3 c52 -5 33 -22 -50
-46 -71 -21 -177 -71 -260 -123 -21 -12 -40 -23 -43 -23 -11 0 -4 24 11 42 20
21 14 31 -47 79 l-39 31 -55 -32 c-30 -17 -57 -35 -59 -39 -3 -4 1 -32 8 -62
l12 -54 37 2 c59 4 45 -18 -40 -62 -98 -51 -93 -49 -93 -31 0 9 4 16 10 16 5
0 16 13 24 28 13 26 13 43 0 143 -17 133 -43 297 -49 320 -4 10 7 21 31 32
l36 17 91 -83 c201 -182 245 -217 278 -217 37 0 96 33 103 58 7 23 24 203 32
344 7 126 5 121 65 127 9 0 54 -53 112 -133z m2136 -7 c30 -12 20 -23 -22 -23
l-32 -1 -68 -185 -69 -184 26 -23 c24 -20 37 -49 18 -41 -4 2 -56 21 -115 43
-99 36 -136 64 -74 57 18 -2 30 4 41 20 22 35 126 318 126 344 0 13 -9 30 -21
38 -12 8 -19 19 -15 24 5 8 95 -22 205 -69z m391 -58 c0 -21 10 -38 37 -61 34
-30 40 -32 92 -26 l56 6 -25 -21 c-21 -18 -35 -20 -87 -17 -55 3 -67 8 -98 38
-49 48 -45 110 7 110 13 0 18 -8 18 -29z m-149 -58 c52 -31 96 -58 98 -59 1
-2 0 -7 -3 -13 -4 -7 -15 -7 -30 -1 -30 11 -35 6 -121 -134 -78 -127 -87 -123
113 -49 96 35 126 51 134 69 9 19 8 28 -6 43 -40 44 -5 36 84 -20 105 -66 121
-84 67 -74 -30 6 -37 3 -55 -22 -47 -66 -182 -297 -182 -311 0 -9 9 -26 21
-38 11 -12 17 -24 12 -27 -12 -7 -213 116 -209 128 2 6 10 8 17 6 45 -13 53
-6 130 114 42 66 74 121 70 123 -7 2 -196 -63 -265 -92 -45 -19 -55 -50 -26
-81 43 -46 0 -34 -99 26 -56 34 -101 66 -101 70 0 4 19 7 42 6 l41 -2 99 159
c54 88 98 165 98 171 0 7 -9 20 -20 30 -21 19 -26 35 -11 35 5 0 51 -26 102
-57z m-3274 -178 c55 -36 81 -131 52 -188 -21 -40 -72 -87 -96 -87 -29 0 -29
3 2 34 30 31 32 60 4 105 -26 42 -56 68 -90 76 -31 7 -77 -9 -85 -30 -6 -15
208 -320 231 -329 7 -2 25 2 40 10 51 27 50 -2 -2 -37 -26 -18 -74 -52 -105
-76 -35 -27 -59 -39 -63 -32 -4 5 0 18 9 28 9 10 16 24 16 33 0 8 -49 82 -109
164 -109 150 -133 171 -166 144 -10 -8 -15 -8 -20 0 -4 6 -5 13 -4 14 79 61
236 170 260 181 39 17 90 13 126 -10z m1886 -362 l185 -322 -108 -803 c-59
-442 -141 -1050 -181 -1353 -40 -302 -75 -553 -78 -557 -3 -4 -8 752 -10 1680
-2 928 -1 1685 2 1682 3 -3 88 -150 190 -327z m-2331 5 c-8 -8 -15 -8 -24 -1
-35 28 -57 25 -103 -18 -25 -23 -45 -49 -45 -58 0 -14 109 -121 124 -121 2 0
21 20 42 45 33 41 36 48 25 72 -22 48 3 42 62 -14 59 -57 65 -85 13 -62 -25
12 -30 10 -71 -31 l-45 -44 28 -29 c15 -16 44 -43 65 -59 l38 -31 56 54 c52
51 54 56 49 94 -2 22 -8 50 -12 63 -4 16 -2 22 8 22 17 0 71 -93 66 -114 -2
-7 -65 -77 -140 -155 -130 -135 -173 -164 -128 -87 l21 35 -125 121 c-161 158
-161 158 -197 137 -65 -37 -33 11 92 141 l133 137 40 -43 c29 -31 36 -46 28
-54z m4558 -121 c0 -5 -13 -6 -29 -2 -22 5 -30 2 -36 -12 -22 -55 -74 -217
-71 -221 7 -7 190 83 204 101 11 13 11 20 -4 42 -31 48 -4 38 58 -21 65 -61
86 -94 52 -79 -48 20 -70 15 -217 -43 -230 -92 -330 -110 -378 -66 -25 23 -24
47 5 80 l23 28 13 -25 c31 -61 82 -88 108 -56 15 19 112 329 112 361 0 15 -5
36 -10 47 -25 45 4 30 84 -46 47 -44 86 -84 86 -88z m-2624 -1292 c52 -605
106 -1227 119 -1382 14 -155 25 -292 24 -305 -1 -27 -35 129 -229 1032 -77
360 -175 812 -216 1004 l-76 348 139 241 c133 233 138 240 141 202 2 -22 46
-535 98 -1140z m2904 980 c35 -53 60 -98 57 -101 -3 -3 -17 2 -31 11 -25 17
-28 16 -79 -15 -99 -60 -95 -51 -56 -115 18 -30 43 -67 55 -82 l21 -27 39 24
c67 41 105 73 101 84 -32 86 -10 71 68 -44 63 -95 69 -116 20 -84 -25 16 -26
16 -138 -57 -226 -148 -225 -147 -202 -203 6 -13 4 -17 -8 -15 -20 5 -139 187
-131 200 4 6 15 2 29 -11 20 -19 26 -20 47 -9 49 26 128 82 128 91 0 10 -98
158 -105 158 -3 0 -37 -21 -76 -47 -71 -47 -71 -47 -65 -85 4 -21 2 -38 -2
-38 -16 0 -142 199 -131 206 6 3 18 -1 28 -10 10 -9 25 -16 34 -16 10 0 87 46
173 102 l156 103 -6 37 c-4 21 -2 38 3 38 4 0 37 -43 71 -95z m-4996 -116 c55
-11 60 -11 75 9 16 20 17 19 80 -49 76 -84 73 -104 -11 -63 -31 15 -62 24 -70
21 -19 -7 -178 -230 -178 -249 0 -9 18 -36 41 -61 22 -26 38 -51 34 -57 -5 -7
-77 22 -163 67 -2 1 1 11 8 22 14 27 14 27 -132 239 -115 168 -118 173 -102
195 l17 22 171 -42 c94 -24 197 -48 230 -54z m2743 -1558 c-400 -1127 -379
-1068 -373 -1026 5 33 482 2405 491 2444 5 19 27 -13 126 -185 l120 -208 -364
-1025z m-3298 1288 c28 -18 51 -35 51 -39 0 -15 -13 -18 -41 -10 -43 13 -53 6
-88 -59 -24 -46 -28 -61 -18 -69 24 -19 138 -73 145 -68 5 3 19 27 32 55 l23
51 -22 24 c-37 40 -5 42 65 5 70 -37 83 -61 32 -57 -29 3 -35 -2 -60 -47 -15
-27 -28 -53 -28 -56 0 -3 32 -20 70 -39 84 -41 91 -38 135 43 l30 57 -28 50
c-15 28 -25 55 -22 61 7 11 81 -44 95 -72 8 -15 -8 -54 -83 -199 -52 -99 -97
-177 -100 -174 -3 4 -4 26 0 49 l5 43 -175 88 -176 89 -25 -24 c-14 -14 -29
-21 -33 -18 -5 5 154 341 164 346 1 1 24 -13 52 -30z m5896 -202 c22 -56 41
-105 43 -109 8 -17 -21 -7 -37 13 l-17 21 -132 -52 c-73 -28 -132 -55 -132
-59 0 -4 66 -26 146 -50 123 -37 150 -42 171 -32 21 10 24 16 19 41 -4 20 -2
30 7 30 13 0 98 -205 89 -215 -3 -3 -17 6 -32 20 l-25 24 -180 -72 -180 -72
-1 -39 c0 -22 -5 -41 -10 -43 -5 -2 -30 49 -55 112 -31 77 -41 115 -33 115 7
0 18 -9 24 -20 6 -11 16 -20 21 -20 22 0 269 102 269 111 0 5 -6 9 -14 9 -7 0
-73 18 -146 41 -110 34 -137 39 -157 30 -20 -9 -24 -17 -21 -43 6 -65 -19 -35
-61 72 -24 61 -41 113 -37 117 3 3 17 -6 30 -20 l25 -26 53 18 c74 26 255 99
291 117 26 14 29 20 24 50 -11 68 18 33 58 -69z m-3756 -247 c81 -266 588
-1930 595 -1955 10 -31 -15 21 -448 959 l-405 879 53 91 c29 50 72 125 96 166
24 41 45 70 46 65 2 -6 30 -98 63 -205z m-2145 -14 c58 -31 81 -76 81 -160 0
-81 15 -96 51 -50 13 15 26 26 29 22 3 -3 -8 -52 -25 -108 -16 -56 -30 -104
-30 -106 0 -2 -4 -4 -9 -4 -6 0 -11 15 -13 32 -4 46 -32 49 -54 6 -41 -81
-118 -127 -187 -112 -102 22 -147 79 -147 188 0 47 -4 65 -15 70 -15 5 -40
-13 -48 -36 -2 -7 -8 -10 -12 -6 -12 11 48 208 64 208 8 0 11 -6 7 -16 -7 -18
10 -44 28 -44 6 0 22 20 35 44 29 56 49 74 98 91 46 16 95 10 147 -19z m3968
-389 c-54 -91 -966 -1544 -974 -1552 -13 -14 -28 -48 402 925 210 476 391 885
402 909 l19 44 85 -147 85 -148 -19 -31z m2161 21 c9 -46 23 -117 32 -158 26
-120 -3 -180 -88 -180 -29 0 -46 7 -69 30 -16 17 -31 30 -34 30 -2 0 -4 -15
-4 -32 0 -52 -32 -95 -80 -108 -53 -14 -96 -1 -137 43 -41 43 -58 87 -83 214
-11 59 -23 117 -26 130 -5 17 -2 23 10 23 9 0 16 -6 16 -13 0 -8 9 -22 19 -31
19 -17 27 -16 198 19 98 21 184 42 191 47 6 6 12 23 12 39 0 17 5 29 13 29 8
0 19 -30 30 -82z m-3918 -833 c534 -918 491 -843 478 -830 -6 6 -221 273 -478
595 -258 322 -506 631 -553 688 l-84 103 78 134 c43 74 79 133 80 132 1 -1
217 -371 479 -822z m1977 491 l61 -108 -612 -612 -612 -611 433 595 c239 327
480 660 538 738 95 132 105 142 117 125 8 -10 41 -67 75 -127z m-4619 -125 c4
-18 14 -31 29 -35 13 -3 102 -6 199 -6 184 0 193 2 200 44 2 11 10 21 17 24
10 3 12 -23 10 -119 -2 -79 -7 -124 -14 -126 -6 -2 -14 10 -17 26 -8 38 -32
43 -190 39 l-118 -3 116 -95 c64 -52 123 -99 131 -103 20 -11 53 9 60 38 14
58 24 17 24 -101 0 -96 -3 -125 -12 -122 -7 3 -14 14 -16 26 -6 40 -25 45
-215 50 -163 4 -185 3 -200 -12 -9 -10 -17 -26 -17 -37 0 -10 -4 -19 -10 -19
-6 0 -10 47 -10 121 0 92 3 120 13 117 6 -3 13 -14 15 -26 5 -30 26 -33 175
-30 l129 3 -117 95 c-92 75 -123 95 -148 95 -25 0 -32 -5 -37 -24 -3 -14 -12
-27 -19 -29 -12 -4 -13 7 -8 58 4 35 7 89 7 121 0 62 13 79 23 30z m6173 -11
c11 -52 19 -54 213 -47 99 4 186 9 194 13 9 3 19 19 22 35 14 62 23 23 29
-118 3 -82 8 -169 10 -194 l5 -46 -57 5 c-74 6 -83 15 -35 38 l38 19 0 70 c0
81 -1 82 -112 70 l-63 -7 0 -51 c0 -61 6 -72 43 -86 47 -18 20 -31 -64 -31
-82 0 -98 10 -51 32 25 12 27 19 30 76 l3 62 -79 0 c-47 0 -83 -5 -90 -12 -7
-7 -12 -40 -12 -80 0 -74 10 -92 69 -123 33 -17 41 -35 15 -35 -29 0 -103 22
-112 34 -14 16 -24 406 -12 406 6 0 13 -13 16 -30z m-3621 -705 c575 -588 556
-568 425 -468 -58 44 -352 268 -655 497 -302 229 -554 423 -559 430 -6 9 12
48 54 121 l63 108 111 -114 c61 -63 313 -321 561 -574z m-2644 535 c26 -48 25
-120 -2 -154 -23 -29 -60 -34 -79 -11 -10 12 -7 19 19 41 41 34 44 97 6 142
-35 42 -32 58 6 35 18 -10 40 -34 50 -53z m4933 -81 c32 -55 57 -102 55 -103
-6 -5 -1223 -792 -1319 -853 -68 -42 -77 -46 -45 -19 22 19 310 269 640 555
330 286 602 520 605 520 3 1 32 -44 64 -100z m1336 -217 c0 -45 17 -51 213
-73 199 -21 217 -20 217 22 0 11 7 19 16 19 13 0 15 -7 11 -32 -4 -18 -11 -87
-17 -153 -13 -139 -29 -180 -83 -208 -72 -37 -171 2 -203 80 -15 34 -18 90 -8
117 10 26 32 19 27 -7 -8 -41 34 -79 95 -85 31 -2 64 1 82 8 41 17 77 88 53
103 -15 9 -328 39 -368 35 -35 -3 -41 -7 -50 -36 -5 -18 -13 -31 -18 -29 -11
3 -11 -1 -3 92 11 123 17 165 27 165 5 0 9 -8 9 -18z m-3835 -418 c391 -234
703 -424 695 -421 -102 35 -1529 635 -1527 642 3 16 112 205 117 205 3 0 325
-192 715 -426z m2705 276 l59 -101 -27 -10 c-124 -47 -1439 -552 -1480 -568
-29 -12 -56 -21 -60 -21 -4 0 319 182 718 403 399 222 727 402 728 401 2 -1
30 -48 62 -104z m-4576 -95 c4 -58 9 -112 12 -120 4 -9 0 -15 -8 -15 -7 0 -19
14 -25 30 -13 35 -3 35 -204 15 -207 -20 -209 -21 -216 -56 -3 -16 -12 -29
-19 -29 -10 0 -14 16 -15 58 0 31 -4 83 -8 115 -8 62 6 78 27 32 14 -30 27
-31 227 -10 77 8 148 15 158 15 16 0 26 15 41 63 12 39 23 3 30 -98z m-23
-158 c48 -32 75 -86 104 -212 14 -60 28 -120 32 -132 8 -33 -14 -28 -32 7 -10
19 -23 30 -37 30 -26 0 -336 -79 -360 -91 -11 -6 -18 -21 -18 -40 0 -58 -22
-24 -46 70 -13 51 -26 102 -29 112 -4 13 -2 19 9 19 8 0 17 -9 21 -19 9 -29
31 -32 102 -15 62 16 65 18 59 43 -16 65 -18 151 -6 182 28 67 133 92 201 46z
m1040 -15 c35 -11 183 -58 329 -105 146 -47 450 -145 675 -217 463 -149 531
-171 495 -165 -77 12 -1613 287 -1657 296 l-51 10 60 105 c38 65 65 103 73
100 7 -2 41 -13 76 -24z m3757 -77 c33 -58 59 -105 59 -105 -1 0 -389 -70
-862 -154 -473 -85 -861 -154 -862 -152 -2 2 1584 513 1598 515 4 1 33 -46 67
-104z m1148 17 c94 -48 143 -145 130 -258 -5 -41 -62 -224 -69 -224 -1 0 -29
11 -62 24 -73 30 -81 46 -23 46 50 0 78 19 104 70 24 49 22 110 -5 148 -45 64
-205 115 -289 93 -58 -16 -109 -63 -123 -113 -13 -51 -6 -83 32 -130 51 -64
-2 -60 -56 4 -25 29 -27 37 -21 89 11 113 73 220 147 258 37 19 56 22 119 18
50 -2 89 -11 116 -25z m-4096 -406 c443 -52 819 -97 835 -99 17 -2 -444 -5
-1023 -6 -580 0 -1052 2 -1050 7 2 4 32 57 66 118 l64 110 151 -18 c84 -10
514 -60 957 -112z m3141 52 c23 -40 53 -92 66 -115 l25 -43 -1054 1 -1053 1
940 113 c517 62 961 113 987 114 l47 1 42 -72z m-4786 -76 c27 -56 45 -105 42
-109 -4 -3 -18 4 -31 16 -28 26 -39 24 -129 -21 -51 -25 -57 -32 -51 -51 9
-30 73 -157 79 -157 3 0 38 17 80 37 74 37 75 38 75 75 0 21 3 38 8 38 13 0
111 -219 100 -226 -5 -3 -16 3 -24 15 -8 12 -26 21 -39 21 -22 0 -314 -130
-343 -153 -9 -7 -11 -22 -7 -45 11 -62 -15 -31 -65 76 -29 61 -44 104 -38 108
5 3 16 -3 24 -15 8 -12 19 -21 24 -21 22 0 150 64 150 74 0 7 -18 49 -40 94
l-39 82 -76 -37 c-74 -37 -76 -39 -73 -70 7 -60 -18 -35 -63 64 -24 53 -45
100 -47 105 -2 4 3 8 11 8 8 0 17 -7 21 -15 10 -27 49 -16 216 63 l165 78 1
34 c2 52 3 55 13 45 5 -6 30 -56 56 -113z m5331 -6 c-8 -42 -4 -45 196 -150
89 -47 153 -74 160 -70 7 4 19 16 27 27 7 11 17 15 22 10 5 -5 -15 -52 -47
-111 -56 -101 -81 -128 -69 -74 4 20 1 33 -12 44 -23 20 -233 131 -238 126 -5
-5 98 -240 119 -273 19 -28 63 -34 72 -10 5 13 34 22 34 11 0 -2 -22 -44 -50
-94 -27 -50 -50 -95 -50 -101 0 -6 -6 -11 -14 -11 -11 0 -13 8 -9 33 3 21 0
37 -9 44 -26 21 -325 173 -341 173 -9 0 -21 -9 -27 -20 -9 -17 -40 -29 -40
-15 0 3 22 44 48 92 27 49 51 96 55 106 11 31 28 19 25 -19 l-3 -36 125 -68
c68 -38 126 -67 128 -65 7 6 -108 268 -125 288 -21 23 -38 22 -64 -4 -43 -43
-35 -1 18 99 56 105 80 129 69 68z m-2436 -336 c0 -6 -11 -15 -25 -20 -27 -10
-34 -40 -10 -40 31 0 95 -41 110 -70 23 -45 20 -130 -8 -171 -27 -40 -84 -74
-138 -83 -47 -7 -55 -40 -14 -50 52 -13 11 -26 -81 -26 -90 0 -124 12 -70 26
44 11 41 53 -4 54 -29 0 -81 41 -96 75 -19 46 -17 92 5 141 26 58 73 89 164
108 34 8 35 23 2 38 -13 6 -22 15 -19 19 8 13 184 11 184 -1z m-497 -27 c123
-62 86 -319 -57 -392 -86 -44 -202 -28 -242 35 -10 14 -20 52 -23 85 -3 33 -9
59 -13 59 -5 0 -21 0 -37 0 -28 0 -29 -2 -40 -76 -12 -82 -10 -94 20 -94 10 0
19 -6 19 -12 0 -10 -28 -13 -105 -13 -68 0 -104 3 -102 10 2 5 13 11 25 13 31
5 37 21 61 167 30 189 30 187 3 201 -13 6 -24 15 -25 19 -1 4 44 8 101 9 76 1
102 -2 102 -11 0 -7 -8 -13 -19 -13 -26 0 -37 -17 -50 -78 -17 -80 -16 -82 27
-82 35 0 38 3 55 45 25 59 105 131 160 143 48 11 100 6 140 -15z m837 1 c0 -7
-9 -14 -20 -17 -17 -4 -20 -10 -14 -34 16 -65 51 -158 60 -158 12 0 83 137 86
166 2 18 -3 25 -20 27 -13 2 -22 8 -20 14 4 10 145 15 155 5 3 -3 -10 -12 -29
-20 -29 -12 -44 -32 -88 -113 -113 -213 -193 -308 -253 -302 -29 3 -32 6 -35
42 -3 34 -1 38 15 31 60 -26 113 -8 113 39 0 12 -21 83 -46 159 -40 119 -49
138 -70 143 -13 3 -24 11 -24 18 0 7 30 11 95 11 64 0 95 -4 95 -11z m-2991
-116 c23 -28 44 -61 47 -73 3 -13 -8 -60 -27 -111 -36 -101 -47 -164 -29 -164
20 0 140 111 140 129 0 9 -5 22 -12 29 -8 8 -9 15 -2 22 8 8 34 -17 87 -79 73
-85 86 -121 34 -86 -23 15 -27 14 -74 -22 -105 -80 -108 -83 -93 -93 21 -13
32 -13 141 6 53 9 108 14 122 10 32 -8 130 -107 118 -119 -5 -5 -20 -2 -33 7
-21 14 -47 15 -168 11 l-144 -5 -19 -58 c-40 -125 -40 -112 -2 -148 l35 -33
-22 -15 c-32 -22 -64 -20 -82 6 -23 33 -20 58 19 152 39 96 43 124 18 155
l-18 21 -57 -47 c-61 -51 -76 -79 -59 -111 6 -12 7 -23 2 -26 -5 -3 -43 35
-85 84 -72 85 -85 120 -32 85 23 -15 26 -14 87 35 35 28 64 58 64 66 0 9 -12
23 -27 32 -24 14 -35 15 -100 3 -146 -26 -164 -26 -192 2 -34 34 -33 44 10 65
35 16 37 16 48 -1 31 -52 26 -50 118 -36 l85 13 0 36 c0 20 13 73 28 118 27
78 30 131 11 175 -17 37 23 16 63 -35z m4764 -74 c3 -3 -2 -21 -10 -40 -16
-32 -15 -35 3 -55 10 -12 82 -69 158 -127 l139 -105 24 29 c35 43 38 69 14
109 -42 72 -15 75 52 7 47 -47 47 -49 28 -63 -17 -12 -215 -273 -246 -324 -9
-14 -17 -9 -63 35 -38 36 -48 52 -38 56 8 3 23 1 35 -5 38 -21 69 -13 96 24
15 19 25 39 23 44 -5 18 -300 231 -318 231 -9 0 -25 -9 -35 -20 -12 -13 -22
-17 -28 -11 -6 6 7 29 34 63 24 30 60 77 79 106 35 52 41 57 53 46z m-273
-357 l-21 -36 108 -113 c145 -152 165 -169 186 -163 9 3 27 8 38 12 12 3 20 2
18 -3 -2 -5 -65 -69 -140 -142 l-136 -132 -37 47 c-39 50 -36 78 5 49 35 -24
49 -20 103 28 l50 43 -21 29 c-12 16 -40 47 -63 69 l-41 40 -45 -47 c-39 -42
-43 -50 -34 -69 7 -11 9 -28 6 -36 -5 -12 -20 -2 -61 43 -69 76 -70 87 -3 59
12 -5 31 6 63 36 l46 42 -58 59 c-31 32 -63 58 -69 58 -7 0 -35 -21 -64 -47
-51 -46 -52 -48 -47 -92 2 -25 6 -52 8 -60 2 -7 -1 -15 -8 -18 -12 -4 -63 84
-63 108 0 18 284 288 293 280 4 -5 -2 -24 -13 -44z m-3955 -184 c68 -23 149
-103 165 -163 15 -54 7 -116 -19 -169 l-20 -39 39 -26 40 -26 50 76 c39 60 48
80 40 94 -6 11 -15 22 -20 25 -13 8 -13 25 0 25 15 0 200 -130 200 -141 0 -5
-17 -7 -38 -3 -38 6 -39 5 -89 -62 -73 -100 -173 -246 -173 -254 0 -3 10 -16
21 -29 12 -13 18 -26 12 -32 -5 -5 -44 17 -93 52 -46 33 -91 64 -98 68 -23 13
-5 33 18 21 10 -5 25 -10 32 -10 12 0 108 119 108 133 0 3 -16 18 -35 32 l-34
27 -41 -35 c-76 -64 -188 -74 -275 -23 -153 90 -168 273 -34 403 72 70 151 88
244 56z m3569 -132 c3 -4 -6 -19 -19 -31 -14 -13 -25 -32 -25 -42 0 -17 104
-196 172 -296 l29 -42 32 21 c51 35 56 46 50 100 -8 68 10 63 48 -12 24 -49
28 -64 17 -70 -7 -5 -17 -9 -22 -9 -14 0 -298 -180 -326 -206 l-26 -24 -28 66
c-34 77 -25 100 19 54 16 -16 35 -30 42 -30 27 0 93 45 88 59 -14 35 -198 320
-211 325 -8 3 -25 0 -39 -6 -32 -14 -46 -1 -20 19 38 28 200 131 207 132 4 1
9 -3 12 -8z"/>
<path d="M3620 6638 c1 -82 19 -163 41 -181 47 -38 109 5 109 74 0 85 -44 139
-112 139 -36 0 -38 -2 -38 -32z"/>
<path d="M4761 6495 c-28 -112 -27 -121 10 -141 61 -31 112 25 113 124 1 47
-3 57 -27 78 -15 13 -39 24 -51 24 -21 0 -26 -9 -45 -85z"/>
<path d="M2488 6335 c8 -41 20 -75 26 -75 17 0 76 38 76 49 0 9 -102 101 -112
101 -3 0 2 -34 10 -75z"/>
<path d="M1356 5388 c35 -58 167 -233 176 -233 14 0 118 142 118 160 0 6 -62
27 -144 48 -163 42 -160 41 -150 25z"/>
<path d="M908 4614 c-16 -8 -28 -21 -28 -29 0 -8 1 -15 3 -15 2 0 64 -18 137
-40 73 -22 138 -40 143 -40 19 0 -4 66 -31 88 -56 46 -172 65 -224 36z"/>
<path d="M840 4442 c0 -74 158 -137 243 -97 65 31 55 39 -92 84 -76 22 -141
41 -144 41 -4 0 -7 -13 -7 -28z"/>
<path d="M7135 4223 c-38 -8 -71 -16 -73 -18 -2 -2 2 -21 8 -44 15 -58 48 -78
100 -62 50 15 72 47 68 98 -4 45 -9 46 -103 26z"/>
<path d="M6940 4181 c-88 -20 -98 -25 -111 -58 -10 -28 10 -77 36 -87 57 -21
143 5 164 51 17 37 12 115 -8 112 -3 0 -40 -8 -81 -18z"/>
<path d="M1061 2909 c-75 -23 -113 -77 -92 -132 l10 -26 93 25 c116 31 143 61
101 113 -22 25 -66 33 -112 20z"/>
<path d="M4028 2043 c-36 -38 -48 -73 -48 -142 0 -44 5 -65 21 -85 11 -14 24
-26 29 -26 4 0 15 51 25 113 9 61 19 124 22 140 4 19 1 27 -9 27 -8 0 -26 -12
-40 -27z"/>
<path d="M4166 2042 c-15 -73 -37 -234 -34 -249 2 -14 9 -11 39 15 39 34 59
85 59 151 0 74 -52 141 -64 83z"/>
<path d="M3598 2110 c-67 -40 -115 -260 -73 -340 19 -36 59 -48 94 -29 77 42
120 300 60 360 -21 21 -54 24 -81 9z"/>
<path d="M2044 1341 c-69 -42 -159 -181 -170 -263 -14 -98 61 -157 145 -113
41 21 106 98 141 168 42 83 42 152 1 196 -34 36 -71 40 -117 12z"/>
</g>
</svg>
